<svg xmlns="http://www.w3.org/2000/svg" xmlns:svg="http://www.w3.org/2000/svg" xmlns:xlink="http://www.w3.org/1999/xlink" id="svg2" width="83.789" height="62.479" version="1.1"><defs id="defs4"><linearGradient id="linearGradient6094"><stop style="stop-color:#ff0300;stop-opacity:1" id="stop6096" offset="0"/><stop style="stop-color:#fff;stop-opacity:0" id="stop6098" offset="1"/></linearGradient><linearGradient id="linearGradient5769"><stop style="stop-color:#0c09ff;stop-opacity:1" id="stop5771" offset="0"/><stop style="stop-color:#bac7ff;stop-opacity:0" id="stop5773" offset="1"/></linearGradient><linearGradient id="linearGradient5724"><stop style="stop-color:#ff8900;stop-opacity:1" id="stop5726" offset="0"/><stop style="stop-color:#ffbaba;stop-opacity:0" id="stop5728" offset="1"/></linearGradient><linearGradient id="linearGradient5292"><stop id="stop5302" offset="0" style="stop-color:red;stop-opacity:.26086956"/><stop style="stop-color:red;stop-opacity:0" id="stop5296" offset="1"/></linearGradient><linearGradient id="linearGradient5282"><stop style="stop-color:#f00000;stop-opacity:.97457629" id="stop5284" offset="0"/><stop id="stop5308" offset=".5" style="stop-color:#f70000;stop-opacity:.4745098"/><stop style="stop-color:red;stop-opacity:0" id="stop5286" offset="1"/></linearGradient><linearGradient id="linearGradient3818"><stop style="stop-color:red;stop-opacity:1" id="stop3820" offset="0"/><stop style="stop-color:red;stop-opacity:0" id="stop3822" offset="1"/></linearGradient><linearGradient id="linearGradient6100" x1="195.357" x2="450.273" y1="719.684" y2="717.395" gradientTransform="matrix(1.2781955,0,0,0.83050847,-878.91412,172.1932)" gradientUnits="userSpaceOnUse" xlink:href="#linearGradient6094"/></defs><metadata id="metadata7"/><g id="layer1" transform="translate(-210.19134,-353.07168)"><path style="opacity:.5;fill:none;stroke:red;stroke-width:6;stroke-linecap:round;stroke-miterlimit:4;stroke-dasharray:none;stroke-opacity:1" id="path5800-8" d="m -396.33913,288.36909 a 42.93148,40.406101 0 0 1 38.91853,5.29767 42.93148,40.406101 0 0 1 18.00934,32.90081" transform="translate(614.67785,85.610455)"/><path style="fill:none;stroke:red;stroke-width:28.7218;stroke-linecap:round;stroke-miterlimit:4;stroke-dasharray:none;stroke-opacity:1" id="path5800-1-5" d="m -394.32583,287.76737 a 42.93148,40.406101 0 0 1 37.75769,6.48641 42.93148,40.406101 0 0 1 17.15688,32.31379" transform="matrix(0.24371704,0,0,0.24371704,324.88787,332.46101)"/><path style="opacity:.75;fill:none;stroke:red;stroke-width:11.4406;stroke-linecap:round;stroke-miterlimit:4;stroke-dasharray:none;stroke-opacity:1" id="path5800-9-8" d="m -396.17542,288.31631 a 42.93148,40.406101 0 0 1 38.82522,5.3978 42.93148,40.406101 0 0 1 17.93894,32.85346" transform="matrix(0.61185844,0,0,0.61185844,465.81116,211.88657)"/><path style="opacity:.25;fill:none;stroke:red;stroke-width:3.62446;stroke-linecap:round;stroke-miterlimit:4;stroke-dasharray:none;stroke-opacity:1" id="path5800-95-9" d="m -396.52453,288.42972 a 42.93148,40.406101 0 0 1 39.02396,5.18351 42.93148,40.406101 0 0 1 18.08931,32.95434" transform="matrix(1.3795162,0,0,1.3795162,759.70335,-39.189369)"/></g></svg>